<mxfile host="app.diagrams.net" modified="2022-02-03T11:32:39.478Z" agent="5.0 (Windows NT 10.0; Win64; x64) AppleWebKit/537.36 (KHTML, like Gecko) Chrome/97.0.4692.99 Safari/537.36" etag="8NwSFNw_3rfiFnZIHV9T" version="16.5.2" type="github">
  <diagram id="yqBjzgYDcLQsE_bjkhoh" name="Page-1">
    <mxGraphModel dx="782" dy="468" grid="1" gridSize="10" guides="1" tooltips="1" connect="1" arrows="1" fold="1" page="1" pageScale="1" pageWidth="850" pageHeight="1100" math="0" shadow="0">
      <root>
        <mxCell id="0" />
        <mxCell id="1" parent="0" />
        <mxCell id="xPYrDUrBfEV6JEniaKv3-1" value="&lt;b&gt;&lt;font style=&quot;font-size: 18px&quot;&gt;VID Service&lt;/font&gt;&lt;/b&gt;" style="rounded=1;whiteSpace=wrap;html=1;" vertex="1" parent="1">
          <mxGeometry x="350" y="210" width="135" height="70" as="geometry" />
        </mxCell>
        <mxCell id="xPYrDUrBfEV6JEniaKv3-2" value="&lt;span style=&quot;color: rgba(0 , 0 , 0 , 0) ; font-family: monospace ; font-size: 0px&quot;&gt;%3CmxGraphModel%3E%3Croot%3E%3CmxCell%20id%3D%220%22%2F%3E%3CmxCell%20id%3D%221%22%20parent%3D%220%22%2F%3E%3CmxCell%20id%3D%222%22%20value%3D%22Partner%20Management%20Service%22%20style%3D%22rounded%3D0%3BwhiteSpace%3Dwrap%3Bhtml%3D1%3B%22%20vertex%3D%221%22%20parent%3D%221%22%3E%3CmxGeometry%20x%3D%22590%22%20y%3D%22315%22%20width%3D%22120%22%20height%3D%2260%22%20as%3D%22geometry%22%2F%3E%3C%2FmxCell%3E%3C%2Froot%3E%3C%2FmxGraphModel%3E&lt;/span&gt;" style="rounded=0;whiteSpace=wrap;html=1;" vertex="1" parent="1">
          <mxGeometry x="435" y="330" width="120" height="60" as="geometry" />
        </mxCell>
        <mxCell id="xPYrDUrBfEV6JEniaKv3-3" value="WebSub" style="rounded=0;whiteSpace=wrap;html=1;" vertex="1" parent="1">
          <mxGeometry x="100" y="180" width="120" height="60" as="geometry" />
        </mxCell>
        <mxCell id="xPYrDUrBfEV6JEniaKv3-4" value="Auth Adapter" style="rounded=0;whiteSpace=wrap;html=1;" vertex="1" parent="1">
          <mxGeometry x="140" y="270" width="120" height="60" as="geometry" />
        </mxCell>
        <mxCell id="xPYrDUrBfEV6JEniaKv3-5" value="" style="rounded=0;whiteSpace=wrap;html=1;" vertex="1" parent="1">
          <mxGeometry x="280" y="330" width="120" height="60" as="geometry" />
        </mxCell>
        <mxCell id="xPYrDUrBfEV6JEniaKv3-7" value="" style="rounded=0;whiteSpace=wrap;html=1;" vertex="1" parent="1">
          <mxGeometry x="475" y="57.5" width="110" height="72.5" as="geometry" />
        </mxCell>
        <mxCell id="xPYrDUrBfEV6JEniaKv3-8" value="" style="aspect=fixed;html=1;points=[];align=center;image;fontSize=12;image=img/lib/azure2/security/Keys.svg;" vertex="1" parent="1">
          <mxGeometry x="481.58000000000004" y="73.47" width="38.42" height="40.56" as="geometry" />
        </mxCell>
        <mxCell id="xPYrDUrBfEV6JEniaKv3-9" value="Key Manager" style="text;html=1;strokeColor=none;fillColor=none;align=center;verticalAlign=middle;whiteSpace=wrap;rounded=0;" vertex="1" parent="1">
          <mxGeometry x="520" y="78.75" width="60" height="30" as="geometry" />
        </mxCell>
        <mxCell id="xPYrDUrBfEV6JEniaKv3-10" value="" style="shape=cube;whiteSpace=wrap;html=1;boundedLbl=1;backgroundOutline=1;darkOpacity=0.05;darkOpacity2=0.1;" vertex="1" parent="1">
          <mxGeometry x="580" y="150" width="120" height="85" as="geometry" />
        </mxCell>
        <mxCell id="xPYrDUrBfEV6JEniaKv3-11" value="Credential request generator" style="text;html=1;strokeColor=none;fillColor=none;align=center;verticalAlign=middle;whiteSpace=wrap;rounded=0;" vertex="1" parent="1">
          <mxGeometry x="620" y="185" width="60" height="35" as="geometry" />
        </mxCell>
        <mxCell id="xPYrDUrBfEV6JEniaKv3-12" value="" style="shape=cylinder3;whiteSpace=wrap;html=1;boundedLbl=1;backgroundOutline=1;size=15;" vertex="1" parent="1">
          <mxGeometry x="570" y="270" width="60" height="70" as="geometry" />
        </mxCell>
        <mxCell id="xPYrDUrBfEV6JEniaKv3-13" value="DB" style="text;html=1;strokeColor=none;fillColor=none;align=center;verticalAlign=middle;whiteSpace=wrap;rounded=0;" vertex="1" parent="1">
          <mxGeometry x="570" y="290" width="60" height="50" as="geometry" />
        </mxCell>
        <mxCell id="xPYrDUrBfEV6JEniaKv3-14" value="Partner Management service" style="text;html=1;strokeColor=none;fillColor=none;align=center;verticalAlign=middle;whiteSpace=wrap;rounded=0;" vertex="1" parent="1">
          <mxGeometry x="450" y="340" width="75" height="40" as="geometry" />
        </mxCell>
        <mxCell id="xPYrDUrBfEV6JEniaKv3-15" value="Audit manager" style="text;html=1;strokeColor=none;fillColor=none;align=center;verticalAlign=middle;whiteSpace=wrap;rounded=0;" vertex="1" parent="1">
          <mxGeometry x="305" y="345" width="60" height="30" as="geometry" />
        </mxCell>
        <mxCell id="xPYrDUrBfEV6JEniaKv3-16" value="Kernel ID generator" style="shape=cube;whiteSpace=wrap;html=1;boundedLbl=1;backgroundOutline=1;darkOpacity=0.05;darkOpacity2=0.1;" vertex="1" parent="1">
          <mxGeometry x="150" y="70" width="120" height="80" as="geometry" />
        </mxCell>
        <mxCell id="xPYrDUrBfEV6JEniaKv3-17" value="Identity service" style="rounded=0;whiteSpace=wrap;html=1;" vertex="1" parent="1">
          <mxGeometry x="310" y="57.5" width="120" height="72.5" as="geometry" />
        </mxCell>
        <mxCell id="xPYrDUrBfEV6JEniaKv3-23" value="1" style="ellipse;whiteSpace=wrap;html=1;aspect=fixed;" vertex="1" parent="1">
          <mxGeometry x="510" y="20" width="32.5" height="32.5" as="geometry" />
        </mxCell>
        <mxCell id="xPYrDUrBfEV6JEniaKv3-25" value="2" style="ellipse;whiteSpace=wrap;html=1;aspect=fixed;" vertex="1" parent="1">
          <mxGeometry x="623.75" y="108.75" width="32.5" height="32.5" as="geometry" />
        </mxCell>
        <mxCell id="xPYrDUrBfEV6JEniaKv3-26" value="3" style="ellipse;whiteSpace=wrap;html=1;aspect=fixed;" vertex="1" parent="1">
          <mxGeometry x="633.75" y="290" width="32.5" height="32.5" as="geometry" />
        </mxCell>
        <mxCell id="xPYrDUrBfEV6JEniaKv3-27" value="4" style="ellipse;whiteSpace=wrap;html=1;aspect=fixed;" vertex="1" parent="1">
          <mxGeometry x="471.25" y="400" width="32.5" height="32.5" as="geometry" />
        </mxCell>
        <mxCell id="xPYrDUrBfEV6JEniaKv3-28" value="5" style="ellipse;whiteSpace=wrap;html=1;aspect=fixed;" vertex="1" parent="1">
          <mxGeometry x="318.75" y="400" width="32.5" height="32.5" as="geometry" />
        </mxCell>
        <mxCell id="xPYrDUrBfEV6JEniaKv3-29" value="6" style="ellipse;whiteSpace=wrap;html=1;aspect=fixed;" vertex="1" parent="1">
          <mxGeometry x="170" y="340" width="32.5" height="32.5" as="geometry" />
        </mxCell>
        <mxCell id="xPYrDUrBfEV6JEniaKv3-30" value="7" style="ellipse;whiteSpace=wrap;html=1;aspect=fixed;" vertex="1" parent="1">
          <mxGeometry x="60" y="193.75" width="32.5" height="32.5" as="geometry" />
        </mxCell>
        <mxCell id="xPYrDUrBfEV6JEniaKv3-31" value="8" style="ellipse;whiteSpace=wrap;html=1;aspect=fixed;" vertex="1" parent="1">
          <mxGeometry x="107.5" y="78.75" width="32.5" height="32.5" as="geometry" />
        </mxCell>
        <mxCell id="xPYrDUrBfEV6JEniaKv3-32" value="9" style="ellipse;whiteSpace=wrap;html=1;aspect=fixed;" vertex="1" parent="1">
          <mxGeometry x="332.5" y="10" width="32.5" height="32.5" as="geometry" />
        </mxCell>
      </root>
    </mxGraphModel>
  </diagram>
</mxfile>
